<svg xmlns="http://www.w3.org/2000/svg" width="68" height="68" viewBox="0 0 68 68" fill="none"><g clip-path="url(#clip0_1509_267)"><path d="M34 68C52.7777 68 68 52.7777 68 34C68 15.2223 52.7777 0 34 0C15.2223 0 0 15.2223 0 34C0 52.7777 15.2223 68 34 68Z" fill="#982A86"></path><path d="M17.3017 33.5001C17.3017 24.387 24.6893 16.9994 33.8023 16.9994C42.9154 16.9994 50.303 24.387 50.303 33.5001C50.303 42.6131 42.9154 50.0007 33.8023 50.0007C24.6893 50.0007 17.3017 42.6131 17.3017 33.5001Z" stroke="white" stroke-width="2.5" stroke-linecap="round" stroke-linejoin="round"></path><path d="M14 33.5017L17.3002 33.5017L33.8008 33.5017M33.8008 33.5017L42.0511 19.2117L43.7014 16.352M33.8008 33.5017L43.7013 50.6483M53.6016 33.5017L50.3014 33.5017M49.3068 27.8581L52.4079 26.7294M15.1946 40.2739L18.2957 39.1452M46.4413 22.8939L48.9693 20.7726M18.6328 46.228L21.1608 44.1067M23.9006 50.6479L25.5507 47.7899M36.6663 17.2501L37.2394 14M30.3626 53L30.9357 49.75M30.9357 17.25L30.3626 14M37.2393 53L36.6663 49.7499M25.5506 19.2103L23.9005 16.3523M21.1605 22.8952L18.6325 20.774M48.969 46.2293L46.441 44.1081M18.2952 27.8578L15.1941 26.729M52.4073 40.2736L49.3062 39.1449" stroke="white" stroke-width="2.5" stroke-linecap="round" stroke-linejoin="round"></path></g><defs><clipPath id="clip0_1509_267"><rect width="68" height="68" fill="white"></rect></clipPath></defs></svg>