<?xml version="1.0" encoding="UTF-8"?>
<svg width="22px" height="20px" viewBox="0 0 22 20" version="1.1" xmlns="http://www.w3.org/2000/svg" xmlns:xlink="http://www.w3.org/1999/xlink">
    <title>construction-icon-purple</title>
    <g id="Design" stroke="none" stroke-width="1" fill="none" fill-rule="evenodd" stroke-linecap="round" stroke-linejoin="round">
        <g id="Mega-Menu-Solutions" transform="translate(-755, -428)" stroke="#982A86" stroke-width="1.5">
            <g id="Industry" transform="translate(754.25, 222)">
                <g id="icons-copy" transform="translate(0, 29)">
                    <g id="construction-icon-purple" transform="translate(2, 178)">
                        <path d="M19.0000191,3 L1.00003545,3 C0.447763229,3 0,3.44770807 0,3.99997955 L0,9.99996591 C0,10.5522919 0.447763229,11 1.00003545,11 L19.0000191,11 C19.5522913,11 20,10.5522919 20,9.99996591 L20,3.99997955 C20,3.44770807 19.5522913,3 19.0000191,3 Z" id="Path"></path>
                        <line x1="15.5" y1="11" x2="15.5" y2="18" id="Path"></line>
                        <line x1="4.5" y1="11" x2="4.5" y2="18" id="Path"></line>
                        <line x1="15.5" y1="0" x2="15.5" y2="3" id="Path"></line>
                        <line x1="4.5" y1="0" x2="4.5" y2="3" id="Path"></line>
                        <line x1="7" y1="10" x2="0" y2="3" id="Path"></line>
                        <line x1="13" y1="3" x2="20" y2="10" id="Path"></line>
                        <line x1="6" y1="3" x2="14" y2="11" id="Path"></line>
                    </g>
                </g>
            </g>
        </g>
    </g>
</svg>