<svg xmlns="http://www.w3.org/2000/svg" width="68" height="68" viewBox="0 0 68 68" fill="none"><circle cx="34" cy="34" r="34" fill="#982A86"></circle><path d="M16.125 24.375C16.125 39.5628 28.4372 51.875 43.625 51.875H47.75C50.0282 51.875 51.875 50.0282 51.875 47.75V45.2354C51.875 44.2889 51.2309 43.464 50.3127 43.2344L42.2036 41.2071C41.3985 41.0059 40.5512 41.3067 40.0533 41.9706L38.2746 44.3422C37.7584 45.0305 36.8655 45.3349 36.0576 45.0389C29.9949 42.8181 25.182 38.0051 22.9611 31.9424C22.6651 31.1345 22.9695 30.2416 23.6578 29.7254L26.0294 27.9467C26.6933 27.4488 26.9941 26.6015 26.7929 25.7964L24.7656 17.6873C24.536 16.7691 23.7111 16.125 22.7646 16.125H20.25C17.9718 16.125 16.125 17.9718 16.125 20.25V24.375Z" stroke="white" stroke-width="2.5" stroke-linecap="round" stroke-linejoin="round"></path><path d="M49.125 27.125V18.875M49.125 18.875H40.875M49.125 18.875L38.125 29.875" stroke="white" stroke-width="2.5" stroke-linecap="round" stroke-linejoin="round"></path></svg>