<svg xmlns="http://www.w3.org/2000/svg" width="68" height="68" viewBox="0 0 68 68" fill="none"><circle cx="34" cy="34" r="34" fill="#982A86"></circle><path d="M53.0649 29.1119C47.115 24.9413 40.7333 21.3449 34.0001 18.4031C27.2669 21.3449 20.8852 24.9413 14.9353 29.1118C16.5784 29.5654 18.2033 30.0626 19.8088 30.6022C24.7354 32.2582 29.4786 34.3133 34.0001 36.7292C38.5215 34.3134 43.2647 32.2583 48.1912 30.6023C49.7968 30.0627 51.4217 29.5654 53.0649 29.1119Z" stroke="white" stroke-width="2.5" stroke-linecap="round" stroke-linejoin="round"></path><path d="M25.75 38.125C25.75 38.8844 25.1344 39.5 24.375 39.5C23.6156 39.5 23 38.8844 23 38.125C23 37.3656 23.6156 36.75 24.375 36.75C25.1344 36.75 25.75 37.3656 25.75 38.125Z" stroke="white" stroke-width="2.5" stroke-linecap="round" stroke-linejoin="round"></path><path d="M19.8087 30.6023C19.3093 34.423 19.0058 38.3054 18.9089 42.239C24.2182 44.4557 29.268 47.1699 34 50.3233C38.7319 47.1699 43.7817 44.4557 49.091 42.239C48.9941 38.3054 48.6907 34.4231 48.1912 30.6024M34 27.4795C30.6883 29.0702 27.476 30.8349 24.375 32.7617V39.5001M21.1531 48.6533C23.301 46.5054 24.375 43.6903 24.375 40.8751V38.1251" stroke="white" stroke-width="2.5" stroke-linecap="round" stroke-linejoin="round"></path></svg>