<svg xmlns="http://www.w3.org/2000/svg" width="68" height="68" viewBox="0 0 68 68" fill="none"><circle cx="34" cy="34" r="34" fill="#982A86"></circle><g clip-path="url(#clip0_1509_19)"><path d="M40.0646 34.3102C40.1636 34.4089 40.2421 34.5261 40.2956 34.6552C40.3492 34.7843 40.3768 34.9227 40.3768 35.0624C40.3768 35.2022 40.3492 35.3406 40.2956 35.4697C40.2421 35.5987 40.1636 35.716 40.0646 35.8147L33.6896 42.1897C33.5909 42.2886 33.4737 42.3671 33.3446 42.4207C33.2155 42.4743 33.0771 42.5018 32.9374 42.5018C32.7976 42.5018 32.6592 42.4743 32.5302 42.4207C32.4011 42.3671 32.2838 42.2886 32.1851 42.1897L28.9976 39.0022C28.8988 38.9034 28.8205 38.7861 28.767 38.6571C28.7136 38.528 28.686 38.3897 28.686 38.2499C28.686 38.1102 28.7136 37.9719 28.767 37.8428C28.8205 37.7138 28.8988 37.5965 28.9976 37.4977C29.1971 37.2982 29.4677 37.1861 29.7499 37.1861C29.8896 37.1861 30.0279 37.2136 30.157 37.2671C30.2861 37.3205 30.4033 37.3989 30.5021 37.4977L32.9374 39.9351L38.5601 34.3102C38.6588 34.2112 38.7761 34.1327 38.9052 34.0792C39.0342 34.0256 39.1726 33.998 39.3124 33.998C39.4521 33.998 39.5905 34.0256 39.7196 34.0792C39.8487 34.1327 39.9659 34.2112 40.0646 34.3102Z" fill="white"></path><path d="M24.4375 17C24.7193 17 24.9895 17.1119 25.1888 17.3112C25.3881 17.5105 25.5 17.7807 25.5 18.0625V19.125H42.5V18.0625C42.5 17.7807 42.6119 17.5105 42.8112 17.3112C43.0105 17.1119 43.2807 17 43.5625 17C43.8443 17 44.1145 17.1119 44.3138 17.3112C44.5131 17.5105 44.625 17.7807 44.625 18.0625V19.125H46.75C47.8772 19.125 48.9582 19.5728 49.7552 20.3698C50.5522 21.1668 51 22.2478 51 23.375V46.75C51 47.8772 50.5522 48.9582 49.7552 49.7552C48.9582 50.5522 47.8772 51 46.75 51H21.25C20.1228 51 19.0418 50.5522 18.2448 49.7552C17.4478 48.9582 17 47.8772 17 46.75V23.375C17 22.2478 17.4478 21.1668 18.2448 20.3698C19.0418 19.5728 20.1228 19.125 21.25 19.125H23.375V18.0625C23.375 17.7807 23.4869 17.5105 23.6862 17.3112C23.8855 17.1119 24.1557 17 24.4375 17ZM21.25 21.25C20.6864 21.25 20.1459 21.4739 19.7474 21.8724C19.3489 22.2709 19.125 22.8114 19.125 23.375V46.75C19.125 47.3136 19.3489 47.8541 19.7474 48.2526C20.1459 48.6511 20.6864 48.875 21.25 48.875H46.75C47.3136 48.875 47.8541 48.6511 48.2526 48.2526C48.6511 47.8541 48.875 47.3136 48.875 46.75V23.375C48.875 22.8114 48.6511 22.2709 48.2526 21.8724C47.8541 21.4739 47.3136 21.25 46.75 21.25H21.25Z" fill="white"></path><path d="M22.3125 25.5C22.3125 25.2182 22.4244 24.948 22.6237 24.7487C22.823 24.5494 23.0932 24.4375 23.375 24.4375H44.625C44.9068 24.4375 45.177 24.5494 45.3763 24.7487C45.5756 24.948 45.6875 25.2182 45.6875 25.5V27.625C45.6875 27.9068 45.5756 28.177 45.3763 28.3763C45.177 28.5756 44.9068 28.6875 44.625 28.6875H23.375C23.0932 28.6875 22.823 28.5756 22.6237 28.3763C22.4244 28.177 22.3125 27.9068 22.3125 27.625V25.5Z" fill="white"></path></g><defs><clipPath id="clip0_1509_19"><rect width="34" height="34" fill="white" transform="translate(17 17)"></rect></clipPath></defs></svg>