<svg xmlns="http://www.w3.org/2000/svg" width="68" height="68" viewBox="0 0 68 68" fill="none"><g clip-path="url(#clip0_1510_11)"><path d="M34 68C52.7777 68 68 52.7777 68 34C68 15.2223 52.7777 0 34 0C15.2223 0 0 15.2223 0 34C0 52.7777 15.2223 68 34 68Z" fill="#982A86"></path><path d="M49.4545 34C49.4545 42.5353 42.5353 49.4545 34 49.4545C25.4646 49.4545 18.5454 42.5353 18.5454 34C18.5454 25.4646 25.4646 18.5454 34 18.5454C42.5353 18.5454 49.4545 25.4646 49.4545 34Z" stroke="white" stroke-width="2.5" stroke-linecap="round" stroke-linejoin="round"></path><path d="M33.9999 44.303V23.6969M28.8484 39.4636L30.3576 40.5956C32.3693 42.1044 35.6309 42.1044 37.6426 40.5956C39.6543 39.0867 39.6543 36.6404 37.6426 35.1316C36.6367 34.3771 35.3182 33.9999 33.9997 33.9999C32.7549 34 31.5103 33.6228 30.5606 32.8683C28.6612 31.3595 28.6612 28.9132 30.5606 27.4043C32.4599 25.8955 35.5394 25.8955 37.4388 27.4043L38.1512 27.9703" stroke="white" stroke-width="2.5" stroke-linecap="round" stroke-linejoin="round"></path></g><defs><clipPath id="clip0_1510_11"><rect width="68" height="68" fill="white"></rect></clipPath></defs></svg>