<svg xmlns="http://www.w3.org/2000/svg" width="68" height="68" viewBox="0 0 68 68" fill="none"><circle cx="34" cy="34" r="34" fill="#982A86"></circle><path d="M18.875 29.1875C18.875 28.0484 19.7984 27.125 20.9375 27.125H27.125H38.8125C39.9516 27.125 40.875 28.0484 40.875 29.1875V46.375V49.8125C40.875 50.9516 39.9516 51.875 38.8125 51.875H20.9375C19.7984 51.875 18.875 50.9516 18.875 49.8125V29.1875Z" stroke="white" stroke-width="2.5" stroke-linecap="round" stroke-linejoin="round"></path><path d="M32.625 20.25C32.625 19.8264 32.6889 19.4177 32.8075 19.033C33.3267 17.3489 34.8954 16.125 36.75 16.125H39.5C41.3546 16.125 42.9233 17.3489 43.4425 19.033C43.5611 19.4177 43.625 19.8264 43.625 20.25C43.625 21.0094 43.0094 21.625 42.25 21.625H34C33.2406 21.625 32.625 21.0094 32.625 20.25Z" stroke="white" stroke-width="2.5" stroke-linecap="round" stroke-linejoin="round"></path><path d="M32.8075 19.033C32.1188 19.074 31.4322 19.123 30.7478 19.1798C28.6742 19.3519 27.125 21.1175 27.125 23.1983V27.1249M43.4425 19.033C44.1313 19.074 44.8178 19.123 45.5022 19.1798C47.5758 19.3519 49.125 21.1175 49.125 23.1983V42.2499C49.125 44.5281 47.2782 46.3749 45 46.3749H40.875M25.75 40.8749L28.5 43.6249L34 36.7499" stroke="white" stroke-width="2.5" stroke-linecap="round" stroke-linejoin="round"></path></svg>