<svg xmlns="http://www.w3.org/2000/svg" width="68" height="68" viewBox="0 0 68 68" fill="none"><circle cx="34" cy="34" r="34" fill="#982A86"></circle><path d="M16.125 27.8125C16.125 26.6734 17.0484 25.75 18.1875 25.75H51.1875C52.3266 25.75 53.25 26.6734 53.25 27.8125V30.5625C53.25 31.7016 52.3266 32.625 51.1875 32.625H18.1875C17.0484 32.625 16.125 31.7016 16.125 30.5625V27.8125Z" stroke="white" stroke-width="2.5" stroke-linecap="round" stroke-linejoin="round"></path><path d="M34 20.9375C34 21.8117 34 23.4158 34 25.75C31.6894 25.75 30.0852 25.75 29.1875 25.75C26.5296 25.75 24.375 23.5954 24.375 20.9375C24.375 18.2796 26.5296 16.125 29.1875 16.125C31.8454 16.125 34 18.2796 34 20.9375Z" stroke="white" stroke-width="2.5" stroke-linecap="round" stroke-linejoin="round"></path><path d="M34 20.9375C34 21.8117 34 23.4158 34 25.75C36.3106 25.75 37.9148 25.75 38.8125 25.75C41.4704 25.75 43.625 23.5954 43.625 20.9375C43.625 18.2796 41.4704 16.125 38.8125 16.125C36.1546 16.125 34 18.2796 34 20.9375Z" stroke="white" stroke-width="2.5" stroke-linecap="round" stroke-linejoin="round"></path><path d="M50.5 32.625V47.75C50.5 49.2688 49.2688 50.5 47.75 50.5H21.625C20.1062 50.5 18.875 49.2688 18.875 47.75V32.625M34 25.75V50.5" stroke="white" stroke-width="2.5" stroke-linecap="round" stroke-linejoin="round"></path></svg>