<svg xmlns="http://www.w3.org/2000/svg" width="68" height="68" viewBox="0 0 68 68" fill="none"><circle cx="34" cy="34" r="34" fill="#982A86"></circle><path d="M42.25 31.1641H25.75C25.5609 31.1641 25.4062 31.3187 25.4062 31.5078V48.7812C25.4062 48.9703 25.5609 49.125 25.75 49.125H42.25C42.4391 49.125 42.5938 48.9703 42.5938 48.7812V31.5078C42.5938 31.3187 42.4391 31.1641 42.25 31.1641ZM28.1562 33.9141H39.8438V38.9414H28.1562V33.9141ZM39.8438 46.375H28.1562V41.3477H39.8438V46.375Z" fill="white"></path><path d="M30.2188 44.1406C30.2188 44.5053 30.3636 44.855 30.6215 45.1129C30.8793 45.3708 31.2291 45.5156 31.5938 45.5156C31.9584 45.5156 32.3082 45.3708 32.566 45.1129C32.8239 44.855 32.9688 44.5053 32.9688 44.1406C32.9688 43.776 32.8239 43.4262 32.566 43.1684C32.3082 42.9105 31.9584 42.7656 31.5938 42.7656C31.2291 42.7656 30.8793 42.9105 30.6215 43.1684C30.3636 43.4262 30.2188 43.776 30.2188 44.1406ZM30.2188 36.4922C30.2188 36.8569 30.3636 37.2066 30.6215 37.4645C30.8793 37.7223 31.2291 37.8672 31.5938 37.8672C31.9584 37.8672 32.3082 37.7223 32.566 37.4645C32.8239 37.2066 32.9688 36.8569 32.9688 36.4922C32.9688 36.1275 32.8239 35.7778 32.566 35.5199C32.3082 35.2621 31.9584 35.1172 31.5938 35.1172C31.2291 35.1172 30.8793 35.2621 30.6215 35.5199C30.3636 35.7778 30.2188 36.1275 30.2188 36.4922Z" fill="white"></path><path d="M46.8647 27.8512C44.8968 22.6562 39.8823 18.9609 34.0085 18.9609C28.1346 18.9609 23.1202 22.652 21.1522 27.8469C17.4526 28.8223 14.7284 32.2039 14.7499 36.2172C14.7757 40.7031 18.2561 44.3512 22.6389 44.7422C22.8409 44.7594 23.0128 44.6004 23.0128 44.3984V41.8031C23.0128 41.6312 22.8839 41.4852 22.712 41.4637C21.5518 41.3176 20.4561 40.8105 19.6139 39.9813C18.5827 38.9715 18.0155 37.6137 18.0155 36.1742C18.0155 34.9711 18.4065 33.8367 19.1413 32.8914C19.8589 31.9719 20.8686 31.3059 21.9815 31.0137L23.61 30.584L24.2073 29.007C24.5768 28.0273 25.0925 27.1078 25.7413 26.2785C26.3815 25.4535 27.1421 24.7316 27.9929 24.1301C29.7589 22.8883 31.8386 22.2309 34.0085 22.2309C36.1784 22.2309 38.2581 22.8883 40.0241 24.1344C40.8792 24.7359 41.6354 25.4578 42.2757 26.2828C42.9245 27.1121 43.4401 28.0316 43.8096 29.0113L44.4026 30.584L46.0268 31.0137C48.3557 31.6324 49.9843 33.7508 49.9843 36.1699C49.9843 37.6137 49.4171 38.9672 48.3858 39.977C47.5479 40.802 46.4565 41.3133 45.2964 41.4594C45.1245 41.4809 44.9999 41.627 44.9999 41.7988V44.3984C44.9999 44.6004 45.1761 44.7594 45.378 44.7422C49.7479 44.3469 53.2198 40.7031 53.2499 36.2258C53.2757 32.2125 50.5557 28.8309 46.8647 27.8512Z" fill="white"></path></svg>