<svg xmlns="http://www.w3.org/2000/svg" width="68" height="68" viewBox="0 0 68 68" fill="none"><circle cx="34" cy="34" r="34" fill="#982A86"></circle><path d="M27.125 20.25C27.125 19.861 27.1788 19.4846 27.2795 19.1278C27.7683 17.395 29.3608 16.125 31.25 16.125H36.75C38.6392 16.125 40.2317 17.395 40.7205 19.1278C40.8212 19.4846 40.875 19.861 40.875 20.25C40.875 21.0094 40.2594 21.625 39.5 21.625H28.5C27.7406 21.625 27.125 21.0094 27.125 20.25Z" stroke="white" stroke-width="2.5" stroke-linecap="round" stroke-linejoin="round"></path><path d="M40.7205 19.1278C41.9052 19.2173 43.0833 19.3302 44.2544 19.4661C46.2722 19.7003 47.75 21.4399 47.75 23.4712V47.75C47.75 50.0282 45.9032 51.875 43.625 51.875H24.375C22.0968 51.875 20.25 50.0282 20.25 47.75V23.4712C20.25 21.4399 21.7278 19.7003 23.7456 19.4661C24.9167 19.3302 26.0948 19.2173 27.2795 19.1278" stroke="white" stroke-width="2.5" stroke-linecap="round" stroke-linejoin="round"></path></svg>