<svg xmlns="http://www.w3.org/2000/svg" width="68" height="68" viewBox="0 0 68 68" fill="none"><g clip-path="url(#clip0_1510_33)"><path d="M34 68C52.7777 68 68 52.7777 68 34C68 15.2223 52.7777 0 34 0C15.2223 0 0 15.2223 0 34C0 52.7777 15.2223 68 34 68Z" fill="#982A86"></path><path d="M20.8635 32.841C20.8635 36.6819 23.9772 39.7955 27.8181 39.7955H28.9772C30.0656 39.7955 31.1432 39.8424 32.2078 39.9343C31.6124 37.6697 31.2953 35.2924 31.2953 32.841C31.2953 30.3896 31.6124 28.0122 32.2078 25.7477C31.1432 25.8395 30.0656 25.8864 28.9772 25.8864H27.8181C23.9772 25.8864 20.8635 29.0001 20.8635 32.841Z" stroke="white" stroke-width="2.5" stroke-linecap="round" stroke-linejoin="round"></path><path d="M27.4128 39.8279C27.9191 42.1351 28.6708 44.3504 29.6392 46.4451C30.0521 47.3382 31.1467 47.6491 31.9989 47.1571L33.0132 46.5715C33.8209 46.1052 34.1112 45.0869 33.7288 44.2362C33.1092 42.8582 32.5985 41.4205 32.2077 39.9342C37.0906 40.3556 41.703 41.7229 45.8607 43.8522M45.8607 43.8522C45.6788 44.4381 45.4828 45.0178 45.273 45.5909M45.8607 43.8522C46.6875 41.1891 47.2223 38.3974 47.4276 35.5147M32.2077 25.7476C37.0906 25.3263 41.703 23.959 45.8607 21.8297M45.8607 21.8297C45.6788 21.2438 45.4828 20.664 45.273 20.0909M45.8607 21.8297C46.6875 24.4928 47.4905 31.0502 47.4276 30.1672C48.1939 30.805 48.6816 31.766 48.6816 32.8409C48.6816 33.9159 48.1939 34.8769 47.4276 35.5147M47.4276 35.5147C47.4905 34.6316 47.5225 33.74 47.5225 32.8409" stroke="white" stroke-width="2.5" stroke-linecap="round" stroke-linejoin="round"></path></g><defs><clipPath id="clip0_1510_33"><rect width="68" height="68" fill="white"></rect></clipPath></defs></svg>