<svg xmlns="http://www.w3.org/2000/svg" width="68" height="68" viewBox="0 0 68 68" fill="none"><g clip-path="url(#clip0_1510_22)"><path d="M34 68C52.7777 68 68 52.7777 68 34C68 15.2223 52.7777 0 34 0C15.2223 0 0 15.2223 0 34C0 52.7777 15.2223 68 34 68Z" fill="#982A86"></path><path d="M21.2499 24.727C26.1886 24.727 30.6764 22.7966 33.9999 19.649C37.3234 22.7966 41.8112 24.727 46.7499 24.727C46.8284 24.727 46.9067 24.7265 46.985 24.7256C47.5846 26.5494 47.909 28.4981 47.909 30.5226C47.909 39.164 41.9987 46.425 33.9999 48.4837C26.0011 46.425 20.0908 39.164 20.0908 30.5226C20.0908 28.4981 20.4152 26.5494 21.0148 24.7256C21.0931 24.7265 21.1714 24.727 21.2499 24.727Z" stroke="white" stroke-width="2.5" stroke-linecap="round" stroke-linejoin="round"></path><path d="M29.3635 35.1588L32.8408 38.6361L38.6363 30.5225" stroke="white" stroke-width="2.5" stroke-linecap="round" stroke-linejoin="round"></path></g><defs><clipPath id="clip0_1510_22"><rect width="68" height="68" fill="white"></rect></clipPath></defs></svg>