<svg xmlns="http://www.w3.org/2000/svg" width="68" height="68" viewBox="0 0 68 68" fill="none"><circle cx="34" cy="34" r="34" fill="#982A86"></circle><g clip-path="url(#clip0_1509_6)"><path d="M27.5833 36.75L24.8333 34L27.5833 31.25" stroke="white" stroke-width="3" stroke-linecap="round" stroke-linejoin="round"></path><path d="M40.4167 31.25L43.1667 34L40.4167 36.75" stroke="white" stroke-width="3" stroke-linecap="round" stroke-linejoin="round"></path><path d="M17.5 34C17.5 36.1668 17.9268 38.3124 18.756 40.3143C19.5852 42.3161 20.8006 44.1351 22.3327 45.6673C23.8649 47.1994 25.6839 48.4148 27.6857 49.244C29.6876 50.0732 31.8332 50.5 34 50.5C36.1668 50.5 38.3124 50.0732 40.3143 49.244C42.3161 48.4148 44.1351 47.1994 45.6673 45.6673C47.1994 44.1351 48.4148 42.3161 49.244 40.3143C50.0732 38.3124 50.5 36.1668 50.5 34C50.5 31.8332 50.0732 29.6876 49.244 27.6857C48.4148 25.6839 47.1994 23.8649 45.6673 22.3327C44.1351 20.8006 42.3161 19.5852 40.3143 18.756C38.3124 17.9268 36.1668 17.5 34 17.5C31.8332 17.5 29.6876 17.9268 27.6857 18.756C25.6839 19.5852 23.8649 20.8006 22.3327 22.3327C20.8006 23.8649 19.5852 25.6839 18.756 27.6857C17.9268 29.6876 17.5 31.8332 17.5 34Z" stroke="white" stroke-width="3" stroke-linecap="round" stroke-linejoin="round"></path><path d="M35.8334 29.4166L32.1667 39.5" stroke="white" stroke-width="3" stroke-linecap="round" stroke-linejoin="round"></path></g><defs><clipPath id="clip0_1509_6"><rect width="44" height="44" fill="white" transform="translate(12 12)"></rect></clipPath></defs></svg>