<svg xmlns="http://www.w3.org/2000/svg" width="68" height="68" viewBox="0 0 68 68" fill="none"><g clip-path="url(#clip0_1510_44)"><path d="M34 68C52.7777 68 68 52.7777 68 34C68 15.2223 52.7777 0 34 0C15.2223 0 0 15.2223 0 34C0 52.7777 15.2223 68 34 68Z" fill="#982A86"></path><path d="M35.8396 28.882C36.5335 29.2135 37.1838 29.6667 37.7586 30.2414C40.4745 32.9573 40.4745 37.3607 37.7586 40.0766L30.804 47.0312C28.0881 49.7471 23.6847 49.7471 20.9688 47.0312C18.2529 44.3153 18.2529 39.9119 20.9688 37.196L23.6841 34.4807M44.316 33.5192L47.0313 30.8039C49.7472 28.088 49.7472 23.6846 47.0313 20.9687C44.3154 18.2528 39.912 18.2528 37.1961 20.9687L30.2416 27.9232C27.5256 30.6392 27.5256 35.0425 30.2416 37.7585C30.8163 38.3332 31.4667 38.7863 32.1606 39.1178" stroke="white" stroke-width="2.5" stroke-linecap="round" stroke-linejoin="round"></path></g><defs><clipPath id="clip0_1510_44"><rect width="68" height="68" fill="white"></rect></clipPath></defs></svg>