<svg xmlns="http://www.w3.org/2000/svg" width="68" height="68" viewBox="0 0 68 68" fill="none"><circle cx="34" cy="34" r="34" fill="#982A86"></circle><path d="M50.5 21.1667C50.5 19.1445 48.8555 17.5 46.8333 17.5H21.1667C19.1445 17.5 17.5 19.1445 17.5 21.1667V46.8333C17.5 48.8555 19.1445 50.5 21.1667 50.5H46.8333C48.8555 50.5 50.5 48.8555 50.5 46.8333V21.1667ZM21.1667 46.8333V21.1667H46.8333L46.837 46.8333H21.1667Z" fill="white"></path><path d="M24.8333 24.8334H28.4963V28.5H24.8333V24.8334ZM32.1666 24.8334H43.1666V28.5H32.1666V24.8334ZM24.8333 32.1667H28.4963V35.8334H24.8333V32.1667ZM32.1666 32.1667H43.1666V35.8334H32.1666V32.1667ZM24.8333 39.5H28.4963V43.1667H24.8333V39.5ZM32.1666 39.5H43.1666V43.1667H32.1666V39.5Z" fill="white"></path></svg>