<svg xmlns="http://www.w3.org/2000/svg" width="68" height="68" viewBox="0 0 68 68" fill="none"><circle cx="34" cy="34" r="34" fill="#982A86"></circle><path d="M39.5 24.375C39.5 27.4126 37.0376 29.875 34 29.875C30.9624 29.875 28.5 27.4126 28.5 24.375C28.5 21.3374 30.9624 18.875 34 18.875C37.0376 18.875 39.5 21.3374 39.5 24.375Z" stroke="white" stroke-width="2.5" stroke-linecap="round" stroke-linejoin="round"></path><path d="M50.5 29.875C50.5 32.1532 48.6532 34 46.375 34C44.0968 34 42.25 32.1532 42.25 29.875C42.25 27.5968 44.0968 25.75 46.375 25.75C48.6532 25.75 50.5 27.5968 50.5 29.875Z" stroke="white" stroke-width="2.5" stroke-linecap="round" stroke-linejoin="round"></path><path d="M25.75 29.875C25.75 32.1532 23.9032 34 21.625 34C19.3468 34 17.5 32.1532 17.5 29.875C17.5 27.5968 19.3468 25.75 21.625 25.75C23.9032 25.75 25.75 27.5968 25.75 29.875Z" stroke="white" stroke-width="2.5" stroke-linecap="round" stroke-linejoin="round"></path><path d="M23.0669 47.5954C23.0227 47.1947 23 46.7875 23 46.375C23 46.3562 23 46.3374 23.0001 46.3186C23.011 44.1611 23.643 42.1504 24.7264 40.4563C26.6807 37.4007 30.1038 35.375 34 35.375C37.8967 35.375 41.3202 37.4012 43.2743 40.4574C44.3573 42.1512 44.989 44.1614 44.9999 46.3184C45 46.3373 45 46.3561 45 46.375C45 46.7875 44.9773 47.1947 44.9331 47.5954C41.7123 49.4434 37.9796 50.5 34 50.5C30.0204 50.5 26.2877 49.4434 23.0669 47.5954Z" stroke="white" stroke-width="2.5" stroke-linecap="round" stroke-linejoin="round"></path><path d="M44.9998 46.3184C45.4535 46.3559 45.9125 46.375 46.3759 46.375C48.2979 46.375 50.1431 46.0464 51.8584 45.4423C51.87 45.2964 51.8759 45.1489 51.8759 45C51.8759 41.9624 49.4135 39.5 46.3759 39.5C45.2253 39.5 44.1572 39.8533 43.2742 40.4574M24.7263 40.4563C23.8436 39.8529 22.7761 39.5 21.6262 39.5C18.5887 39.5 16.1262 41.9624 16.1262 45C16.1262 45.1489 16.1321 45.2964 16.1437 45.4423C17.8591 46.0464 19.7043 46.375 21.6262 46.375C22.0888 46.375 22.547 46.356 23 46.3186" stroke="white" stroke-width="2.5" stroke-linecap="round" stroke-linejoin="round"></path></svg>