<svg width="304" height="72" viewBox="0 0 304 72" fill="none" xmlns="http://www.w3.org/2000/svg">
<g clip-path="url(#clip0_612_6)">
<path fill-rule="evenodd" clip-rule="evenodd" d="M274.395 30.0058L276.676 28.9884C279.037 27.9476 281.516 26.9138 284.05 26.0706L287.032 25.053C287.377 24.9276 288.059 24.874 288.263 24.6H288.33C288.024 23.4384 287.833 22.0817 287.479 20.9132C286.666 18.2207 285.346 15.8302 283.256 14.42C281.966 13.5489 279.734 13.0703 277.978 13.8323C276.421 14.5106 274.824 15.9835 273.509 16.9987C272.111 18.0813 270.738 19.2057 269.331 20.2511L267.925 21.3592H267.835C267.805 21.0479 267.827 20.7336 267.901 20.43C268.051 19.5239 268.021 18.6342 268.17 17.7839L268.349 16.0648C268.687 14.0855 268.893 12.0946 269.331 10.1827L269.958 7.16258C270.046 6.82108 270.241 6.30768 270.204 5.96386C268.809 5.2639 267.347 4.71042 265.843 4.31211C264.863 4.06354 263.572 3.89163 262.468 4.0798C260.074 4.50029 258.308 4.86269 257.082 6.45404C256.558 7.13328 256.169 7.90872 255.935 8.73766C255.623 9.8458 255.801 11.3814 256.002 12.4709L256.314 14.9822L256.941 19.6866L257.275 21.9934C256.897 21.9493 256.564 21.5288 256.292 21.3383C255.605 20.8388 254.915 20.3277 254.228 19.8236C252.059 18.2137 250.097 16.4179 248.015 14.7337L245.289 12.2688L245.155 12.2456L242.967 13.83C241.796 14.7592 240.834 16.0369 240.06 17.3588C239.625 18.1513 239.288 18.9946 239.056 19.8701C238.806 20.674 238.73 21.5217 238.826 22.3582C238.952 23.1108 238.985 23.6475 239.227 24.2352C240.423 27.1298 244.226 28.138 247.092 29.3694L250.555 30.7934L252.297 31.4904V31.5578C252.089 31.8156 251.588 31.9154 251.27 32.0548C250.417 32.4266 249.563 32.8146 248.677 33.1862C247.07 33.86 245.395 34.55 243.737 35.1772L241.213 36.0368L237.905 37.1982L238.463 39.6864C239.272 43.1106 240.584 45.8636 243.179 47.4688C244.373 48.2052 246.408 48.7372 248.072 48.0566C249.278 47.564 250.219 46.7046 251.201 45.9658L256.273 41.984L258.151 40.446C258.276 40.5622 258.196 41.129 258.151 41.4194L257.858 44.3604C257.442 46.651 257.282 48.944 256.807 51.1464L255.89 55.8506C256.188 56.083 256.613 56.1922 256.984 56.3478C257.995 56.816 259.04 57.2042 260.113 57.5094C261.154 57.7742 262.663 57.974 263.89 57.7416C264.959 57.5302 265.839 57.4304 266.705 57.0634C268.742 56.2038 270.748 53.9294 270.192 50.6398L269.989 48.8766L269.53 45.234L268.793 40.0766V40.0324C269.184 40.1114 269.526 40.5204 269.822 40.7294C270.628 41.3078 271.406 41.9072 272.191 42.4926C275.216 44.732 278.106 47.1574 280.838 49.7548C281.27 49.6874 282.718 48.333 283.117 48.0124C285.162 46.37 288.22 42.2348 287.004 38.2554C286.796 37.5954 286.478 36.9758 286.067 36.4224C285.215 35.2724 283.824 34.7404 282.423 34.1388L276.055 31.4254L273.598 30.4078V30.3846C273.843 30.2184 274.112 30.0908 274.395 30.0058Z" fill="#8C8C8C"/>
<path fill-rule="evenodd" clip-rule="evenodd" d="M78.8112 17.4235C65.0687 17.4235 58.0367 24.3325 58.0367 38.2457V66.9875H70.2668V35.7577C70.3587 30.6909 73.2503 28.2029 78.6299 28.2029C84.0093 28.2029 86.8919 30.6909 87.1765 35.7577V60.8171C87.1765 64.6875 89.1777 66.7133 93.1825 66.9897H99.1999V38.2457C99.2918 24.3325 92.5559 17.4235 78.8112 17.4235ZM122.698 17.4235C111.595 17.4235 105.314 21.8375 103.859 30.8745H115.965C116.603 28.5723 118.969 27.4665 123.247 27.4665C128.252 27.4665 130.802 28.8487 131.075 31.6131C131.075 34.2847 128.436 35.8505 123.247 36.4917C111.051 37.6905 102.677 40.8221 102.404 52.5213C102.404 63.3007 110.413 68.7367 121.973 67.8145C134.988 66.8853 142.998 60.9055 142.998 47.4523V30.8745C142.722 21.8444 135.987 17.4235 122.698 17.4235ZM131.254 46.9063C131.254 53.8153 127.158 57.8691 120.424 57.8691C116.601 57.8691 114.6 56.0269 114.326 52.1565C114.326 48.5627 116.784 46.2605 121.608 45.3383C124.908 44.6709 128.135 43.6837 131.247 42.3901V46.9039L131.254 46.9063ZM168.675 28.1913C172.498 28.1913 175.046 29.9429 176.503 33.2579H189.699C187.606 22.6622 180.689 17.4119 169.044 17.4119C154.209 17.6884 146.835 26.0725 146.835 42.7479C147.2 59.5163 154.663 67.9911 169.225 67.9911C180.42 68.2675 187.519 61.9115 189.704 51.9615H180.597C179.049 51.9479 177.566 52.5857 176.5 53.7223C174.499 56.0247 172.041 57.2233 169.218 57.2233C162.483 57.3163 159.12 52.4331 159.12 42.7595C159.12 33.0861 162.304 28.1913 168.675 28.1913ZM218.246 37.9483L234.978 17.8811H226.638C225.428 17.8782 224.228 18.1036 223.098 18.5455C221.326 19.2279 219.741 20.3286 218.474 21.7561C217.217 23.0292 205.413 37.2049 205.413 37.2049V10.238C205.413 7.01355 202.774 4.24902 199.588 4.24902H193.24V66.9873H205.404V49.1155C205.404 47.8263 206.042 46.9969 207.316 46.7205C208.862 46.7205 210.41 48.1027 211.959 50.8673L220.515 66.9897H235.076L218.246 37.9483ZM55.7369 17.8811H47.397C44.083 17.8811 41.4827 19.4818 39.236 21.7561C37.9782 23.0292 26.175 37.2049 26.175 37.2049V10.238C26.175 7.01355 23.5358 4.24902 20.3503 4.24902H14V66.9875H26.1635V49.1157C26.1635 47.8263 26.8016 46.9969 28.0753 46.7205C29.6221 46.7205 31.1697 48.1027 32.7181 50.8673L41.2716 66.9875H55.8334L38.9973 37.9693L55.7369 17.8811Z" fill="#A23490"/>
</g>
<defs>
<clipPath id="clip0_612_6">
<rect width="275" height="64" fill="white" transform="translate(14 4)"/>
</clipPath>
</defs>
</svg>
